#!OML:ASF X:\für Bonn\!DataBase\2005_08_12_Daniel\c3d\Daniel.ASF
:FULLY-SPECIFIED
:DEGREES
316
root 2.03948 17.2331 -15.2235 355.163 15.5373 -0.720523
lowerback 51.9917 -1.20177 3.98966
upperback 11.0559 0.489074 -3.73591
thorax -8.42413 0.603557 -6.16537
lowerneck -4.76946 -3.63373 -0.0659144
upperneck 10.5262 -4.7653 -0.536043
head 4.29682 -2.35337 -0.413604
rclavicle 1.25234e-014 -1.51076e-014
rhumerus 175.261 -177.927 -257.854
rradius 14.5644
rwrist 30.2486
rhand -13.2706 8.72692
rfingers 7.12502
rthumb 12.8324 -20.8586
lclavicle 1.25234e-014 -1.51076e-014
lhumerus -18.801 7.84366 84.914
lradius 29.3268
lwrist -13.93
lhand -10.9977 -6.26246
lfingers 7.12502
lthumb 15.0227 23.1726
rfemur -18.5819 2.56259 12.7189
rtibia 49.0525
rfoot -17.2645 -14.5046
rtoes -16.657
lfemur -20.1947 -13.2204 -21.8266
ltibia 46.1275
lfoot -21.0989 -8.15274
ltoes -3.5586
317
root 2.07426 17.2468 -15.1574 354.863 15.3761 -0.797123
lowerback 51.0872 -1.16052 3.77084
upperback 11.0372 0.383487 -3.71207
thorax -8.35274 0.539836 -5.98909
lowerneck -4.71731 -3.44839 -0.361353
upperneck 10.6007 -4.50935 -0.378974
head 4.32637 -2.23233 -0.296515
rclavicle -3.22031e-014 -1.96797e-014
rhumerus 174.499 -177.958 -257.962
rradius 14.5966
rwrist 29.9606
rhand -12.9282 8.61495
rfingers 7.12502
rthumb 13.1624 -20.9496
lclavicle -3.22031e-014 -1.96797e-014
lhumerus -18.6149 8.8138 84.6303
lradius 29.0298
lwrist -13.9042
lhand -11.591 -6.1556
lfingers 7.12502
lthumb 14.4511 23.3212
rfemur -18.8169 2.43803 12.8352
rtibia 50.0415
rfoot -16.6415 -14.7389
rtoes -15.5574
lfemur -19.3954 -12.9691 -21.9085
ltibia 45.8522
lfoot -21.3485 -8.24779
ltoes -3.51713
318
root 2.10836 17.2589 -15.0911 354.587 15.2215 -0.875113
lowerback 50.1973 -1.15199 3.58075
upperback 10.9953 0.253101 -3.72415
thorax -8.30243 0.465619 -5.85542
lowerneck -4.72487 -3.25711 -0.626656
upperneck 10.7591 -4.24927 -0.209604
head 4.39678 -2.10725 -0.18239
rclavicle -4.37326e-015 5.36719e-015
rhumerus 173.713 -177.896 -258.129
rradius 14.6566
rwrist 29.6947
rhand -12.6047 8.57632
rfingers 7.12502
rthumb 13.4742 -20.9678
lclavicle -4.37326e-015 5.36719e-015
lhumerus -18.4297 9.86805 84.2955
lradius 28.7099
lwrist -13.9447
lhand -12.212 -6.08909
lfingers 7.12502
lthumb 13.8527 23.4296
rfemur -19.1046 2.1812 12.9511
rtibia 51.0484
rfoot -15.9711 -14.6362
rtoes -14.3301
lfemur -18.6252 -12.7132 -21.9742
ltibia 45.5777
lfoot -21.5742 -8.37759
ltoes -3.36091
319
root 2.14151 17.2702 -15.0234 354.292 15.0602 -0.93486
lowerback 49.3568 -1.14249 3.35876
upperback 10.9472 0.114542 -3.732
thorax -8.25754 0.387524 -5.69849
lowerneck -4.73423 -3.06129 -0.859433
upperneck 10.9142 -3.98189 -0.0786832
head 4.46357 -1.97942 -0.0856338
rclavicle 2.42517e-014 7.15625e-015
rhumerus 172.924 -177.808 -258.305
rradius 14.7662
rwrist 29.5133
rhand -12.2751 8.59304
rfingers 7.12502
rthumb 13.7919 -20.9298
lclavicle 2.42517e-014 7.15625e-015
lhumerus -18.2352 10.9607 83.9562
lradius 28.3634
lwrist -13.9476
lhand -12.6805 -6.15872
lfingers 7.12502
lthumb 13.4012 23.3902
rfemur -19.3765 1.8592 13.0693
rtibia 52.0446
rfoot -15.2265 -14.5666
rtoes -13.7173
lfemur -17.8188 -12.4318 -22.0604
ltibia 45.3011
lfoot -21.8394 -8.48018
ltoes -3.31661
320
root 2.17517 17.2808 -14.9548 354.01 14.8898 -1.02728
lowerback 48.5225 -1.16307 3.20529
upperback 10.8873 -0.0266968 -3.76543
thorax -8.21796 0.309367 -5.60092
lowerneck -4.77351 -2.86776 -1.02093
upperneck 11.0707 -3.72391 0.0525174
head 4.53446 -1.85349 -0.00166293
rclavicle 1.70955e-014 -3.4191e-014
rhumerus 172.099 -177.923 -258.506
rradius 14.9747
rwrist 29.0615
rhand -11.8892 8.62871
rfingers 7.12502
rthumb 14.1638 -20.8685
lclavicle 1.70955e-014 -3.4191e-014
lhumerus -18.0278 12.0402 83.5946
lradius 28.0094
lwrist -14.0135
lhand -13.1291 -6.19391
lfingers 7.12502
lthumb 12.9687 23.383
rfemur -19.673 1.44935 13.2364
rtibia 53.0238
rfoot -14.4115 -14.464
rtoes -13.6296
lfemur -17.0418 -12.2066 -22.1053
ltibia 45.0342
lfoot -22.1029 -8.55359
ltoes -3.35941
321
root 2.2076 17.2906 -14.8856 353.747 14.7486 -1.10303
lowerback 46.7791 -1.17325 3.06595
upperback 11.7606 -0.179481 -3.72437
thorax -8.19419 0.207335 -5.52895
lowerneck -4.79583 -2.66872 -1.15178
upperneck 11.2528 -3.4534 0.114404
head 4.60828 -1.72363 0.0549753
rclavicle 4.17448e-014 -5.32743e-014
rhumerus 171.277 -178.158 -258.718
rradius 15.2589
rwrist 28.5001
rhand -11.5149 8.7319
rfingers 7.12502
rthumb 14.5245 -20.7397
lclavicle 4.17448e-014 -5.32743e-014
lhumerus -17.7752 13.0667 83.2593
lradius 27.5714
lwrist -13.9727
lhand -13.6256 -6.25638
lfingers 7.12502
lthumb 12.4901 23.3504
rfemur -19.9545 0.983119 13.4081
rtibia 53.965
rfoot -13.6342 -14.3315
rtoes -13.9358
lfemur -16.2827 -11.9758 -22.1615
ltibia 44.7648
lfoot -22.3461 -8.65222
ltoes -3.27631
322
root 2.23937 17.2997 -14.8161 353.481 14.6058 -1.18191
lowerback 45.9693 -1.2082 2.89021
upperback 11.6543 -0.335827 -3.74665
thorax -8.1305 0.122573 -5.39222
lowerneck -4.67821 -2.47592 -1.22282
upperneck 11.3603 -3.19409 0.14193
head 4.62387 -1.59883 0.091988
rclavicle -7.95139e-016 -1.98785e-014
rhumerus 170.41 -178.569 -258.971
rradius 15.6171
rwrist 27.7533
rhand -11.1533 8.85341
rfingers 7.12502
rthumb 14.8728 -20.5927
lclavicle -7.95139e-016 -1.98785e-014
lhumerus -17.5459 14.179 82.8975
lradius 27.1382
lwrist -14.1258
lhand -13.913 -6.42906
lfingers 7.12502
lthumb 12.213 23.1944
rfemur -20.2114 0.469238 13.5979
rtibia 54.8539
rfoot -12.8281 -14.0951
rtoes -14.1059
lfemur -15.5205 -11.7864 -22.2131
ltibia 44.5048
lfoot -22.6429 -8.69273
ltoes -3.40333
323
root 2.27067 17.3082 -14.7453 353.239 14.4656 -1.22136
lowerback 45.1552 -1.24045 2.69025
upperback 11.5478 -0.498704 -3.78713
thorax -8.05938 0.0354721 -5.26091
lowerneck -4.55637 -2.28084 -1.2163
upperneck 11.4719 -2.93734 0.15608
head 4.63796 -1.47272 0.110521
rclavicle -2.46493e-014 2.94201e-014
rhumerus 169.462 -179.195 -259.272
rradius 16.12
rwrist 26.7656
rhand -10.8107 8.98806
rfingers 7.12502
rthumb 15.2029 -20.4334
lclavicle -2.46493e-014 2.94201e-014
lhumerus -17.2956 15.1611 82.5446
lradius 26.7165
lwrist -14.1381
lhand -14.0748 -6.59279
lfingers 7.12502
lthumb 12.057 23.0399
rfemur -20.45 -0.0458449 13.7565
rtibia 55.683
rfoot -12.0983 -13.697
rtoes -14.4562
lfemur -14.7645 -11.6205 -22.3058
ltibia 44.2285
lfoot -22.8937 -8.72699
ltoes -3.40398
324
root 2.30066 17.3165 -14.6738 353.003 14.3113 -1.31096
lowerback 44.3532 -1.28745 2.51339
upperback 11.4405 -0.663412 -3.80322
thorax -7.98371 -0.0532548 -5.11519
lowerneck -4.48052 -2.07432 -1.24921
upperneck 11.6064 -2.66039 0.162976
head 4.67029 -1.3388 0.133861
rclavicle -1.90833e-014 4.37326e-014
rhumerus 168.482 -180.059 -259.594
rradius 16.7425
rwrist 25.5652
rhand -10.4589 9.11487
rfingers 7.12502
rthumb 15.5417 -20.2806
lclavicle -1.90833e-014 4.37326e-014
lhumerus -17.0218 16.1854 82.2128
lradius 26.3203
lwrist -14.3132
lhand -14.1754 -6.67048
lfingers 7.12502
lthumb 11.9599 22.9679
rfemur -20.6757 -0.555235 13.9844
rtibia 56.448
rfoot -11.4026 -13.1455
rtoes -14.5893
lfemur -14.0225 -11.3932 -22.3271
ltibia 43.949
lfoot -23.1696 -8.79811
ltoes -3.55199
